<svg width="24" height="24" viewBox="0 0 24 24" fill="none" xmlns="http://www.w3.org/2000/svg">
<g id="Social Media Icon Square/Instagram">
<rect id="Social Media Icon" width="24" height="24" rx="4" fill="url(#paint0_linear_1121_5354)"/>
<path id="Instagram" fill-rule="evenodd" clip-rule="evenodd" d="M6 12C6 9.60324 6 8.40486 6.57113 7.5417C6.82616 7.15626 7.15626 6.82616 7.5417 6.57113C8.40486 6 9.60324 6 12 6C14.3968 6 15.5951 6 16.4583 6.57113C16.8437 6.82616 17.1738 7.15626 17.4289 7.5417C18 8.40486 18 9.60324 18 12C18 14.3968 18 15.5951 17.4289 16.4583C17.1738 16.8437 16.8437 17.1738 16.4583 17.4289C15.5951 18 14.3968 18 12 18C9.60324 18 8.40486 18 7.5417 17.4289C7.15626 17.1738 6.82616 16.8437 6.57113 16.4583C6 15.5951 6 14.3968 6 12ZM15.106 12.0002C15.106 13.7158 13.7153 15.1065 11.9997 15.1065C10.2842 15.1065 8.89347 13.7158 8.89347 12.0002C8.89347 10.2847 10.2842 8.89395 11.9997 8.89395C13.7153 8.89395 15.106 10.2847 15.106 12.0002ZM11.9997 14.0556C13.1349 14.0556 14.0551 13.1354 14.0551 12.0002C14.0551 10.8651 13.1349 9.94489 11.9997 9.94489C10.8646 9.94489 9.9444 10.8651 9.9444 12.0002C9.9444 13.1354 10.8646 14.0556 11.9997 14.0556ZM15.4989 10.0079C16.0512 10.0079 16.4989 9.56019 16.4989 9.0079C16.4989 8.45562 16.0512 8.0079 15.4989 8.0079C14.9466 8.0079 14.4989 8.45562 14.4989 9.0079C14.4989 9.56019 14.9466 10.0079 15.4989 10.0079Z" fill="white"/>
</g>
<defs>
<linearGradient id="paint0_linear_1121_5354" x1="0.000990088" y1="12.0006" x2="24" y2="12.0006" gradientUnits="userSpaceOnUse">
<stop stop-color="#387FC4"/>
<stop offset="1" stop-color="#9EE3FC"/>
</linearGradient>
</defs>
</svg>
